<svg width="1512" height="544" viewBox="0 0 1512 544" fill="none" xmlns="http://www.w3.org/2000/svg">
<g filter="url(#filter0_d_551_1996)">
<path d="M539.023 34.5482C540.323 32.3482 539.523 29.4482 537.323 28.1482C525.523 21.2482 513.023 15.3482 499.823 11.0482C441.223 -8.65177 386.023 14.6482 346.823 59.7482C274.823 142.448 241.523 277.648 224.523 386.548C223.423 372.148 221.123 352.848 219.823 339.648C211.423 275.448 198.423 211.248 175.223 150.548C167.323 130.348 158.223 109.348 147.323 90.5482C146.223 88.6482 143.023 83.3482 141.923 81.6482L140.923 80.1482C137.623 74.4482 131.223 70.8482 124.323 72.4482C116.323 74.2482 111.323 82.1482 113.223 90.1482L113.523 91.4482L116.923 103.748C129.223 149.648 129.523 198.348 120.923 244.948C105.123 330.548 62.2232 414.348 8.22322 482.148C4.12322 487.348 11.3232 492.548 15.2232 488.348C39.5232 461.148 60.5232 431.648 79.4232 400.548C105.323 357.748 126.523 311.348 139.323 262.748C147.823 231.248 152.423 198.348 152.423 165.448C167.823 202.348 179.123 240.948 188.123 280.048C192.723 299.048 196.923 322.748 200.423 342.148C203.123 361.348 206.923 385.748 208.523 405.048C210.723 421.648 213.323 463.648 214.423 481.148C214.423 484.748 217.323 487.948 221.023 488.148C224.923 488.448 228.423 485.448 228.623 481.548C236.723 429.348 246.923 377.048 259.323 325.648C272.623 273.248 294.123 192.148 329.723 126.748C328.723 138.148 328.323 149.648 327.923 160.948C327.223 210.448 330.423 260.448 334.323 309.748C336.423 366.948 340.423 424.048 343.423 480.948C344.123 489.548 356.423 489.148 357.023 480.948C358.323 459.748 359.023 438.548 359.423 417.348C360.923 343.848 357.623 269.048 359.723 195.948C361.923 146.848 365.023 75.4482 403.523 41.3482C407.123 38.1482 411.023 35.4482 415.023 33.0482C438.723 20.9482 465.623 16.8482 496.223 24.0482C508.723 26.8482 521.023 31.1482 533.023 36.2482C535.123 37.2482 537.723 36.4482 539.023 34.3482V34.5482Z" fill="white"/>
<path d="M429.823 170.748L437.023 481.248C437.523 490.548 450.823 490.348 451.323 481.248L458.523 170.748C458.123 151.148 430.223 151.348 429.823 170.748Z" fill="white"/>
<path d="M1384.32 170.748L1391.52 440.448C1392.02 449.748 1405.32 449.548 1405.82 440.448L1413.02 170.748C1412.62 151.148 1384.62 151.248 1384.32 170.748Z" fill="white"/>
<path d="M961.024 441.348C945.024 455.248 928.124 467.948 909.924 478.448C891.824 488.948 872.524 497.348 852.624 502.448C734.924 533.348 632.124 438.648 571.224 347.848C569.824 345.748 568.424 343.548 567.024 341.448C605.724 341.448 677.824 341.548 677.924 341.448C685.324 341.248 691.124 335.048 690.924 327.648C690.324 307.348 687.024 286.748 679.724 267.248C665.624 228.148 634.524 196.048 597.824 177.448C579.524 168.048 559.924 161.048 539.624 157.448C531.624 156.048 524.024 162.548 524.224 170.748L530.624 481.248C531.124 490.448 544.324 490.248 544.624 481.248C544.624 481.248 545.924 417.348 547.124 358.948C566.824 387.348 589.124 413.848 613.924 438.048C677.624 500.748 766.524 546.048 857.024 519.248C900.024 507.048 937.824 481.748 970.324 451.948C973.124 449.348 973.424 444.948 970.924 442.048C968.324 439.048 963.824 438.748 960.924 441.348H961.024ZM627.424 232.648C648.624 254.948 660.024 284.148 663.124 314.548H548.124C549.424 251.448 550.524 200.548 550.724 187.548C562.724 190.948 574.424 195.548 585.424 201.248C601.224 209.448 615.524 219.948 627.424 232.648Z" fill="white"/>
<path d="M843.323 440.448C910.923 440.448 965.723 385.648 965.723 318.048C965.723 250.448 910.923 195.648 843.323 195.648C775.723 195.648 720.923 250.448 720.923 318.048C720.923 385.648 775.723 440.448 843.323 440.448ZM843.323 223.348C895.423 223.348 937.823 265.748 937.823 317.848C937.823 369.948 895.423 412.348 843.323 412.348C791.223 412.348 748.823 369.948 748.823 317.848C748.823 265.748 791.223 223.348 843.323 223.348Z" fill="white"/>
<path d="M1215.32 342.048C1192.42 322.248 1159.32 317.948 1130.82 325.948C1101.62 333.448 1073.62 365.948 1086.12 396.948C1092.82 411.648 1106.72 419.448 1122.52 419.748C1139.42 421.348 1160.22 400.948 1144.92 386.048C1141.42 382.748 1135.32 379.248 1132.12 384.748C1130.72 387.448 1131.72 390.748 1134.42 392.248C1136.52 393.348 1138.02 395.148 1138.32 396.248C1138.72 397.848 1138.12 398.748 1137.02 400.248C1133.62 405.148 1127.12 407.248 1121.32 406.048C1111.92 405.148 1103.72 399.748 1100.22 390.948C1093.52 369.548 1115.72 348.248 1135.62 344.048C1158.12 338.748 1183.92 342.148 1201.32 358.148C1217.42 372.948 1226.82 396.848 1217.62 417.948C1213.42 428.448 1205.72 438.648 1198.12 446.948C1182.32 463.148 1157.82 471.948 1135.22 472.048C1118.02 472.848 1101.92 465.248 1087.62 456.048C1049.42 431.848 1033.62 387.948 1030.12 344.448C1030.12 344.148 1030.12 343.948 1030.02 343.648L1144.92 178.648C1155.42 161.948 1131.62 146.648 1120.82 163.048L1026.02 321.548L1029.52 170.848C1029.12 151.248 1001.22 151.448 1000.82 170.848L1008.02 481.348C1008.52 490.648 1021.82 490.448 1022.32 481.348L1024.22 398.248C1026.02 407.748 1028.72 417.148 1032.52 426.348C1047.22 461.848 1079.42 492.948 1118.92 497.848C1161.72 503.148 1206.92 483.748 1229.72 446.448C1242.72 427.448 1249.02 402.048 1241.02 379.648C1235.92 364.948 1227.42 352.248 1215.72 342.148L1215.32 342.048Z" fill="white"/>
<path d="M1496.92 468.448C1494.52 465.648 1490.22 465.248 1487.42 467.648C1457.42 493.048 1413.22 502.548 1375.82 490.848C1347.12 482.148 1326.32 460.448 1315.72 432.648C1297.22 384.948 1296.92 332.048 1299.02 281.348C1301.32 240.148 1306.52 198.548 1314.52 158.048C1316.62 149.448 1309.12 140.848 1300.22 142.048C1225.12 150.048 1178.82 211.048 1168.32 282.248C1167.12 288.248 1174.52 292.248 1179.02 288.248C1206.82 268.248 1242.22 251.548 1276.62 253.648C1276.12 262.548 1275.62 271.548 1275.42 280.448C1274.52 334.148 1276.52 389.848 1297.62 440.348C1311.02 472.648 1336.82 497.948 1370.92 507.248C1414.42 519.248 1462.72 507.648 1496.32 477.848C1499.02 475.448 1499.32 471.248 1496.92 468.448ZM1186.82 264.648C1202.82 217.648 1236.42 179.348 1285.32 170.648C1282.42 189.548 1280.22 208.348 1278.52 227.348C1244.92 228.948 1213.22 244.248 1186.82 264.648Z" fill="white"/>
<path d="M1376.82 123.548C1384.52 123.548 1390.82 117.248 1390.82 109.548C1390.82 101.848 1379.32 77.9482 1376.82 77.9482C1372.32 77.9482 1362.82 101.748 1362.82 109.548C1362.82 117.348 1369.12 123.548 1376.82 123.548Z" fill="white"/>
<path d="M458.123 109.448C458.123 101.748 446.623 77.8483 444.123 77.8483C439.623 77.8483 430.123 101.648 430.123 109.448C430.123 117.248 436.423 123.448 444.123 123.448C451.823 123.448 458.123 117.148 458.123 109.448Z" fill="white"/>
<path d="M1423.32 123.548C1431.02 123.548 1437.32 117.248 1437.32 109.548C1437.32 101.848 1425.82 77.9482 1423.32 77.9482C1418.82 77.9482 1409.32 101.748 1409.32 109.548C1409.32 117.348 1415.62 123.548 1423.32 123.548Z" fill="white"/>
</g>
<defs>
<filter id="filter0_d_551_1996" x="0" y="0" width="1511.55" height="543.114" filterUnits="userSpaceOnUse" color-interpolation-filters="sRGB">
<feFlood flood-opacity="0" result="BackgroundImageFix"/>
<feColorMatrix in="SourceAlpha" type="matrix" values="0 0 0 0 0 0 0 0 0 0 0 0 0 0 0 0 0 0 127 0" result="hardAlpha"/>
<feOffset dx="3" dy="6"/>
<feGaussianBlur stdDeviation="5"/>
<feColorMatrix type="matrix" values="0 0 0 0 0 0 0 0 0 0 0 0 0 0 0 0 0 0 0.5 0"/>
<feBlend mode="normal" in2="BackgroundImageFix" result="effect1_dropShadow_551_1996"/>
<feBlend mode="normal" in="SourceGraphic" in2="effect1_dropShadow_551_1996" result="shape"/>
</filter>
</defs>
</svg>
